<svg xmlns="http://www.w3.org/2000/svg" style="display: none;">
    <symbol viewBox="0 0 24 24" id="hugeicons-edit-03"><!-- Icon from Huge Icons by Hugeicons -
        undefined -->
        <path fill="none" stroke="currentColor" stroke-linecap="round" stroke-linejoin="round"
            stroke-width="1.5"
            d="M3.782 16.31L3 21l4.69-.782a3.96 3.96 0 0 0 2.151-1.106L20.42 8.532a1.98 1.98 0 0 0 0-2.8L18.269 3.58a1.98 1.98 0 0 0-2.802 0L4.888 14.16a3.96 3.96 0 0 0-1.106 2.15M14 6l4 4"></path>
    </symbol>
    <symbol viewBox="0 0 24 24" id="hugeicons-delete-02"><!-- Icon from Huge Icons by Hugeicons -
        undefined -->
        <path fill="none" stroke="currentColor" stroke-linecap="round" stroke-width="1.5"
            d="m19.5 5.5l-.62 10.025c-.158 2.561-.237 3.842-.88 4.763a4 4 0 0 1-1.2 1.128c-.957.584-2.24.584-4.806.584c-2.57 0-3.855 0-4.814-.585a4 4 0 0 1-1.2-1.13c-.642-.922-.72-2.205-.874-4.77L4.5 5.5M3 5.5h18m-4.944 0l-.683-1.408c-.453-.936-.68-1.403-1.071-1.695a2 2 0 0 0-.275-.172C13.594 2 13.074 2 12.035 2c-1.066 0-1.599 0-2.04.234a2 2 0 0 0-.278.18c-.395.303-.616.788-1.058 1.757L8.053 5.5m1.447 11v-6m5 6v-6"></path>
    </symbol>
    <symbol viewBox="0 0 24 24" id="hugeicons-plus-sign-circle"><!-- Icon from Huge Icons by
        Hugeicons - undefined -->
        <g fill="none" stroke="currentColor" stroke-width="1.5">
            <path stroke-linecap="round" stroke-linejoin="round" d="M12 8v8m4-4H8"></path>
            <circle cx="12" cy="12" r="10"></circle>
        </g>
    </symbol>
    <symbol viewBox="0 0 24 24" id="hugeicons-search-01"><!-- Icon from Huge Icons by Hugeicons -
        undefined -->
        <path fill="none" stroke="currentColor" stroke-linecap="round" stroke-linejoin="round"
            stroke-width="1.5" d="m17 17l4 4m-2-10a8 8 0 1 0-16 0a8 8 0 0 0 16 0"></path>
    </symbol>
    <symbol viewBox="0 0 24 24" id="hugeicons-file-add"><!-- Icon from Huge Icons by Hugeicons -
        undefined -->
        <path fill="none" stroke="currentColor" stroke-linecap="round" stroke-linejoin="round"
            stroke-width="1.5"
            d="M4 12v2.545c0 3.245 0 4.867.886 5.966a4 4 0 0 0 .603.603C6.59 22 8.211 22 11.456 22c.705 0 1.058 0 1.381-.113q.1-.037.197-.082c.31-.148.559-.398 1.058-.896l4.736-4.737c.579-.578.867-.867 1.02-1.235c.152-.367.152-.776.152-1.593V10c0-3.772 0-5.657-1.172-6.829c-1.059-1.06-2.701-1.16-5.793-1.17M13 21.5V21c0-2.829 0-4.243.879-5.122C14.757 15 16.172 15 19 15h.5M12 6H4m4-4v8"></path>
    </symbol>
    <symbol viewBox="0 0 24 24" id="hugeicons-arrow-left-02"><!-- Icon from Huge Icons by Hugeicons
        - undefined -->
        <path fill="none" stroke="currentColor" stroke-linecap="round" stroke-linejoin="round"
            stroke-width="1.5" d="M5.5 12.002H19m-8 6s-6-4.419-6-6s6-6 6-6"></path>
    </symbol>
    <symbol viewBox="0 0 24 24" id="hugeicons-database-restore"><!-- Icon from Huge Icons by
        Hugeicons - undefined -->
        <g fill="none" stroke="currentColor" stroke-width="1.5">
            <ellipse cx="11" cy="5" rx="8" ry="3"></ellipse>
            <path stroke-linecap="round"
                d="M6 10.842c.602.18 1.274.33 2 .44m-2 6.56c.602.18 1.274.33 2 .44"></path>
            <path stroke-linecap="round" stroke-linejoin="round"
                d="m19.842 13l.57 2.345l-.947-.583a4.04 4.04 0 0 0-2.425-.804c-2.231 0-4.04 1.8-4.04 4.02C13 20.2 14.809 22 17.04 22A4.04 4.04 0 0 0 21 18.783M19 5v5M3 5v14c0 1.657 3.582 3 8 3q.128 0 .254-.002"></path>
            <path stroke-linecap="round" d="M3 12c0 1.616 3.407 2.934 7.675 2.998"></path>
        </g>
    </symbol>


    <symbol viewBox="0 0 24 24" id="hugeicons-user-check-01"><!-- Icon from Huge Icons by Hugeicons
        - undefined -->
        <g fill="none" stroke="currentColor" stroke-linecap="round" stroke-linejoin="round"
            stroke-width="1.5">
            <path d="M15 8A5 5 0 1 0 5 8a5 5 0 0 0 10 0"></path>
            <path d="M3 20a7 7 0 0 1 12-4.899M13 18.5s1.348.507 2 2.5c0 0 3.177-5 6-6"></path>
        </g>
    </symbol>

    <symbol viewBox="0 0 24 24" id="hugeicons-undo"><!-- Icon from Huge Icons by Hugeicons -
        undefined -->
        <path fill="none" stroke="currentColor" stroke-linecap="round" stroke-linejoin="round"
            stroke-width="1.5"
            d="M3 12a9 9 0 1 0 1.383-4.797m-1.09-4.202l.173 2.054c.124 1.479.186 2.218.668 2.634s1.193.343 2.615.197l2.044-.21"></path>
    </symbol>
</svg>